<svg width="119" height="24" viewBox="0 0 119 24" fill="none" xmlns="http://www.w3.org/2000/svg">
<path d="M9.5013 20.958H6.33464C2.6763 20.958 1.04297 19.3247 1.04297 15.6663V12.4997C1.04297 8.84134 2.6763 7.20801 6.33464 7.20801H8.83464C9.1763 7.20801 9.45964 7.49134 9.45964 7.83301C9.45964 8.17467 9.1763 8.45801 8.83464 8.45801H6.33464C3.3513 8.45801 2.29297 9.51634 2.29297 12.4997V15.6663C2.29297 18.6497 3.3513 19.708 6.33464 19.708H9.5013C12.4846 19.708 13.543 18.6497 13.543 15.6663V13.1663C13.543 12.8247 13.8263 12.5413 14.168 12.5413C14.5096 12.5413 14.793 12.8247 14.793 13.1663V15.6663C14.793 19.3247 13.1596 20.958 9.5013 20.958Z" fill="#A9395C"/>
<path d="M14.1654 13.7921H11.4987C9.15703 13.7921 8.20703 12.8421 8.20703 10.5004V7.83373C8.20703 7.58373 8.35703 7.3504 8.59036 7.25873C8.8237 7.15873 9.09036 7.21706 9.2737 7.39206L14.607 12.7254C14.782 12.9004 14.8404 13.1754 14.7404 13.4087C14.6487 13.6421 14.4154 13.7921 14.1654 13.7921ZM9.45703 9.34206V10.5004C9.45703 12.1587 9.84036 12.5421 11.4987 12.5421H12.657L9.45703 9.34206Z" fill="#A9395C"/>
<path d="M13.0013 4.29199H9.66797C9.3263 4.29199 9.04297 4.00866 9.04297 3.66699C9.04297 3.32533 9.3263 3.04199 9.66797 3.04199H13.0013C13.343 3.04199 13.6263 3.32533 13.6263 3.66699C13.6263 4.00866 13.343 4.29199 13.0013 4.29199Z" fill="#A9395C"/>
<path d="M5.83203 6.79199C5.49036 6.79199 5.20703 6.50866 5.20703 6.16699C5.20703 4.44199 6.60703 3.04199 8.33203 3.04199H10.5154C10.857 3.04199 11.1404 3.32533 11.1404 3.66699C11.1404 4.00866 10.857 4.29199 10.5154 4.29199H8.33203C7.2987 4.29199 6.45703 5.13366 6.45703 6.16699C6.45703 6.50866 6.1737 6.79199 5.83203 6.79199Z" fill="#A9395C"/>
<path d="M15.9922 16.792C15.6505 16.792 15.3672 16.5087 15.3672 16.167C15.3672 15.8253 15.6505 15.542 15.9922 15.542C16.9422 15.542 17.7089 14.767 17.7089 13.8253V8.66699C17.7089 8.32533 17.9922 8.04199 18.3339 8.04199C18.6755 8.04199 18.9589 8.32533 18.9589 8.66699V13.8253C18.9589 15.4587 17.6255 16.792 15.9922 16.792Z" fill="#A9395C"/>
<path d="M18.332 9.29174H15.832C13.6154 9.29174 12.707 8.38341 12.707 6.16674V3.66674C12.707 3.41674 12.857 3.18341 13.0904 3.09174C13.3237 2.99174 13.5904 3.05007 13.7737 3.22507L18.7737 8.22507C18.9487 8.40007 19.007 8.67507 18.907 8.9084C18.8154 9.14174 18.582 9.29174 18.332 9.29174ZM13.957 5.17507V6.16674C13.957 7.69174 14.307 8.04174 15.832 8.04174H16.8237L13.957 5.17507Z" fill="#A9395C"/>
<path d="M28.56 12.4C28.56 11.3013 28.8053 10.32 29.296 9.456C29.7973 8.58133 30.4747 7.904 31.328 7.424C32.192 6.93333 33.1573 6.688 34.224 6.688C35.472 6.688 36.5653 7.008 37.504 7.648C38.4427 8.288 39.0987 9.17333 39.472 10.304H36.896C36.64 9.77067 36.2773 9.37067 35.808 9.104C35.3493 8.83733 34.816 8.704 34.208 8.704C33.5573 8.704 32.976 8.85867 32.464 9.168C31.9627 9.46667 31.568 9.89333 31.28 10.448C31.0027 11.0027 30.864 11.6533 30.864 12.4C30.864 13.136 31.0027 13.7867 31.28 14.352C31.568 14.9067 31.9627 15.3387 32.464 15.648C32.976 15.9467 33.5573 16.096 34.208 16.096C34.816 16.096 35.3493 15.9627 35.808 15.696C36.2773 15.4187 36.64 15.0133 36.896 14.48H39.472C39.0987 15.6213 38.4427 16.512 37.504 17.152C36.576 17.7813 35.4827 18.096 34.224 18.096C33.1573 18.096 32.192 17.856 31.328 17.376C30.4747 16.8853 29.7973 16.208 29.296 15.344C28.8053 14.48 28.56 13.4987 28.56 12.4ZM45.3213 18.144C44.4679 18.144 43.6999 17.9573 43.0173 17.584C42.3346 17.2 41.7959 16.6613 41.4013 15.968C41.0173 15.2747 40.8253 14.4747 40.8253 13.568C40.8253 12.6613 41.0226 11.8613 41.4173 11.168C41.8226 10.4747 42.3719 9.94133 43.0653 9.568C43.7586 9.184 44.5319 8.992 45.3853 8.992C46.2386 8.992 47.0119 9.184 47.7053 9.568C48.3986 9.94133 48.9426 10.4747 49.3373 11.168C49.7426 11.8613 49.9453 12.6613 49.9453 13.568C49.9453 14.4747 49.7373 15.2747 49.3212 15.968C48.9159 16.6613 48.3613 17.2 47.6573 17.584C46.9639 17.9573 46.1853 18.144 45.3213 18.144ZM45.3213 16.192C45.7266 16.192 46.1053 16.096 46.4573 15.904C46.8199 15.7013 47.1079 15.4027 47.3213 15.008C47.5346 14.6133 47.6413 14.1333 47.6413 13.568C47.6413 12.7253 47.4173 12.08 46.9693 11.632C46.5319 11.1733 45.9933 10.944 45.3533 10.944C44.7133 10.944 44.1746 11.1733 43.7373 11.632C43.3106 12.08 43.0973 12.7253 43.0973 13.568C43.0973 14.4107 43.3053 15.0613 43.7213 15.52C44.1479 15.968 44.6813 16.192 45.3213 16.192ZM53.8284 10.416C54.1164 10.0107 54.511 9.67467 55.0124 9.408C55.5244 9.13067 56.1057 8.992 56.7564 8.992C57.5137 8.992 58.1964 9.17867 58.8044 9.552C59.423 9.92533 59.9084 10.4587 60.2604 11.152C60.623 11.8347 60.8044 12.6293 60.8044 13.536C60.8044 14.4427 60.623 15.248 60.2604 15.952C59.9084 16.6453 59.423 17.184 58.8044 17.568C58.1964 17.952 57.5137 18.144 56.7564 18.144C56.1057 18.144 55.5297 18.0107 55.0284 17.744C54.5377 17.4773 54.1377 17.1413 53.8284 16.736V22.224H51.5884V9.136H53.8284V10.416ZM58.5164 13.536C58.5164 13.0027 58.4044 12.544 58.1804 12.16C57.967 11.7653 57.679 11.4667 57.3164 11.264C56.9644 11.0613 56.5804 10.96 56.1644 10.96C55.759 10.96 55.375 11.0667 55.0124 11.28C54.6604 11.4827 54.3724 11.7813 54.1484 12.176C53.935 12.5707 53.8284 13.0347 53.8284 13.568C53.8284 14.1013 53.935 14.5653 54.1484 14.96C54.3724 15.3547 54.6604 15.6587 55.0124 15.872C55.375 16.0747 55.759 16.176 56.1644 16.176C56.5804 16.176 56.9644 16.0693 57.3164 15.856C57.679 15.6427 57.967 15.3387 58.1804 14.944C58.4044 14.5493 58.5164 14.08 58.5164 13.536ZM70.9121 9.136L65.4241 22.192H63.0401L64.9601 17.776L61.4081 9.136H63.9201L66.2081 15.328L68.5281 9.136H70.9121ZM75.3881 12.4C75.3881 11.3013 75.6335 10.32 76.1241 9.456C76.6255 8.58133 77.3028 7.904 78.1561 7.424C79.0201 6.93333 79.9855 6.688 81.0521 6.688C82.3001 6.688 83.3935 7.008 84.3321 7.648C85.2708 8.288 85.9268 9.17333 86.3001 10.304H83.7241C83.4681 9.77067 83.1055 9.37067 82.6361 9.104C82.1775 8.83733 81.6441 8.704 81.0361 8.704C80.3855 8.704 79.8041 8.85867 79.2921 9.168C78.7908 9.46667 78.3961 9.89333 78.1081 10.448C77.8308 11.0027 77.6921 11.6533 77.6921 12.4C77.6921 13.136 77.8308 13.7867 78.1081 14.352C78.3961 14.9067 78.7908 15.3387 79.2921 15.648C79.8041 15.9467 80.3855 16.096 81.0361 16.096C81.6441 16.096 82.1775 15.9627 82.6361 15.696C83.1055 15.4187 83.4681 15.0133 83.7241 14.48H86.3001C85.9268 15.6213 85.2708 16.512 84.3321 17.152C83.4041 17.7813 82.3108 18.096 81.0521 18.096C79.9855 18.096 79.0201 17.856 78.1561 17.376C77.3028 16.8853 76.6255 16.208 76.1241 15.344C75.6335 14.48 75.3881 13.4987 75.3881 12.4ZM92.1494 18.144C91.296 18.144 90.528 17.9573 89.8454 17.584C89.1627 17.2 88.624 16.6613 88.2294 15.968C87.8454 15.2747 87.6534 14.4747 87.6534 13.568C87.6534 12.6613 87.8507 11.8613 88.2454 11.168C88.6507 10.4747 89.2 9.94133 89.8934 9.568C90.5867 9.184 91.36 8.992 92.2134 8.992C93.0667 8.992 93.84 9.184 94.5334 9.568C95.2267 9.94133 95.7707 10.4747 96.1654 11.168C96.5707 11.8613 96.7734 12.6613 96.7734 13.568C96.7734 14.4747 96.5654 15.2747 96.1494 15.968C95.744 16.6613 95.1894 17.2 94.4854 17.584C93.792 17.9573 93.0134 18.144 92.1494 18.144ZM92.1494 16.192C92.5547 16.192 92.9334 16.096 93.2854 15.904C93.648 15.7013 93.936 15.4027 94.1494 15.008C94.3627 14.6133 94.4694 14.1333 94.4694 13.568C94.4694 12.7253 94.2454 12.08 93.7974 11.632C93.36 11.1733 92.8214 10.944 92.1814 10.944C91.5414 10.944 91.0027 11.1733 90.5654 11.632C90.1387 12.08 89.9254 12.7253 89.9254 13.568C89.9254 14.4107 90.1334 15.0613 90.5494 15.52C90.976 15.968 91.5094 16.192 92.1494 16.192ZM97.8405 13.536C97.8405 12.64 98.0165 11.8453 98.3685 11.152C98.7312 10.4587 99.2218 9.92533 99.8405 9.552C100.459 9.17867 101.147 8.992 101.905 8.992C102.481 8.992 103.03 9.12 103.553 9.376C104.075 9.62133 104.491 9.952 104.801 10.368V6.16H107.073V18H104.801V16.688C104.523 17.1253 104.134 17.4773 103.633 17.744C103.131 18.0107 102.55 18.144 101.889 18.144C101.142 18.144 100.459 17.952 99.8405 17.568C99.2218 17.184 98.7312 16.6453 98.3685 15.952C98.0165 15.248 97.8405 14.4427 97.8405 13.536ZM104.817 13.568C104.817 13.024 104.71 12.56 104.497 12.176C104.283 11.7813 103.995 11.4827 103.633 11.28C103.27 11.0667 102.881 10.96 102.465 10.96C102.049 10.96 101.665 11.0613 101.312 11.264C100.961 11.4667 100.673 11.7653 100.449 12.16C100.235 12.544 100.129 13.0027 100.129 13.536C100.129 14.0693 100.235 14.5387 100.449 14.944C100.673 15.3387 100.961 15.6427 101.312 15.856C101.675 16.0693 102.059 16.176 102.465 16.176C102.881 16.176 103.27 16.0747 103.633 15.872C103.995 15.6587 104.283 15.36 104.497 14.976C104.71 14.5813 104.817 14.112 104.817 13.568ZM117.5 13.376C117.5 13.696 117.479 13.984 117.436 14.24H110.956C111.01 14.88 111.234 15.3813 111.628 15.744C112.023 16.1067 112.508 16.288 113.084 16.288C113.916 16.288 114.508 15.9307 114.86 15.216H117.276C117.02 16.0693 116.53 16.7733 115.804 17.328C115.079 17.872 114.188 18.144 113.132 18.144C112.279 18.144 111.511 17.9573 110.828 17.584C110.156 17.2 109.628 16.6613 109.244 15.968C108.871 15.2747 108.684 14.4747 108.684 13.568C108.684 12.6507 108.871 11.8453 109.244 11.152C109.618 10.4587 110.14 9.92533 110.812 9.552C111.484 9.17867 112.258 8.992 113.132 8.992C113.975 8.992 114.727 9.17333 115.388 9.536C116.06 9.89867 116.578 10.416 116.94 11.088C117.314 11.7493 117.5 12.512 117.5 13.376ZM115.18 12.736C115.17 12.16 114.962 11.7013 114.556 11.36C114.151 11.008 113.655 10.832 113.068 10.832C112.514 10.832 112.044 11.0027 111.66 11.344C111.287 11.6747 111.058 12.1387 110.972 12.736H115.18Z" fill="#A9395C"/>
</svg>
