<svg width="24" height="24" viewBox="0 0 24 24" fill="none" xmlns="http://www.w3.org/2000/svg">
<path d="M5.54194 19.5196C4.93194 19.5196 4.36194 19.3096 3.95194 18.9196C3.43194 18.4296 3.18194 17.6896 3.27194 16.8896L3.64194 13.6496C3.71194 13.0396 4.08194 12.2296 4.51194 11.7896L12.7219 3.09956C14.7719 0.929561 16.9119 0.869561 19.0819 2.91956C21.2519 4.96956 21.3119 7.10956 19.2619 9.27956L11.0519 17.9696C10.6319 18.4196 9.85194 18.8396 9.24194 18.9396L6.02194 19.4896C5.85194 19.4996 5.70194 19.5196 5.54194 19.5196ZM15.9319 2.90956C15.1619 2.90956 14.4919 3.38956 13.8119 4.10956L5.60194 12.8096C5.40194 13.0196 5.17194 13.5196 5.13194 13.8096L4.76194 17.0496C4.72194 17.3796 4.80194 17.6496 4.98194 17.8196C5.16194 17.9896 5.43194 18.0496 5.76194 17.9996L8.98194 17.4496C9.27194 17.3996 9.75194 17.1396 9.95194 16.9296L18.1619 8.23956C19.4019 6.91956 19.8519 5.69956 18.0419 3.99956C17.2419 3.22956 16.5519 2.90956 15.9319 2.90956Z" fill="white"/>
<path d="M17.3404 10.9498C17.3204 10.9498 17.2904 10.9498 17.2704 10.9498C14.1504 10.6398 11.6404 8.26985 11.1604 5.16985C11.1004 4.75985 11.3804 4.37985 11.7904 4.30985C12.2004 4.24985 12.5804 4.52985 12.6504 4.93985C13.0304 7.35985 14.9904 9.21985 17.4304 9.45985C17.8404 9.49985 18.1404 9.86985 18.1004 10.2798C18.0504 10.6598 17.7204 10.9498 17.3404 10.9498Z" fill="white"/>
<path d="M21 22.75H3C2.59 22.75 2.25 22.41 2.25 22C2.25 21.59 2.59 21.25 3 21.25H21C21.41 21.25 21.75 21.59 21.75 22C21.75 22.41 21.41 22.75 21 22.75Z" fill="white"/>
</svg>
