<svg xmlns="http://www.w3.org/2000/svg" viewBox="0 0 564.98 548.03"><defs><style>.cls-1{fill:#fd729d;}.cls-1,.cls-2,.cls-5{fill-rule:evenodd;}.cls-2{fill:#d34873;}.cls-3{fill:#ffdde8;}.cls-4,.cls-5{fill:#292727;}</style></defs><g id="Layer_2" data-name="Layer 2"><g id="YellowOnWhite"><path class="cls-1" d="M229.57,127.46c157.09,0,200.21,53,200.21,200.21S381.4,528,229.57,528,20.14,479.5,20.14,327.67,72.37,127.46,229.57,127.46Z"/><path class="cls-2" d="M389.49,480c-30.87,33.81-81.68,48-159.92,48C77.64,528,20.14,479.5,20.14,327.67c0-77.83,13.77-128.55,48.39-159.42l2.12,2.33C67.41,193.66-22.17,530.32,389.49,480Z"/><path class="cls-3" d="M361.25,226.76c-4.65-7.29-17.1-30-53.54-42.82-11.44-4.05-2.63-24.39,10.32-20.95,37.35,9.92,54.16,23.79,60.23,37.86,12,27.83-9.21,38.26-17,25.91Z"/><path class="cls-4" d="M229.57,107.42c84.21,0,138.77,15,173.39,51s46.86,90.39,46.86,169.24c0,79.06-13.66,133.51-49,169.45S311.05,548,229.57,548c-81.18,0-137.76-13.56-175.32-48.59C16.3,464.22,0,409.46,0,327.67c0-81.58,14.88-136.24,52-171.56,36.94-35,93.63-48.69,177.54-48.69Zm144.54,78.85c-26.22-27.33-71.77-38.67-144.54-38.67-73.29,0-121.37,10.53-149.91,37.56C51.52,212,40.18,257.53,40.18,327.67s12.45,115.5,41.3,142.42c29.25,27.13,77.23,37.76,148.09,37.76,70.24,0,115.79-11.44,142.72-38.87s37.35-73,37.35-141.31-9.31-114.07-35.53-141.4Z"/><path class="cls-4" d="M132.5,420.8a21.77,21.77,0,0,1,31.38-30.17c17.1,17.82,39.57,25.71,61.84,25.81A98.21,98.21,0,0,0,260.84,410a87.4,87.4,0,0,0,29-18.22,67.66,67.66,0,0,0,21.06-49,21.71,21.71,0,0,1,43.42,0c-.1,32.69-13.56,60.12-34.41,80.26a129.67,129.67,0,0,1-43.33,27.43,141.69,141.69,0,0,1-50.81,9.42c-33.4-.1-67.21-12.25-93.22-39.07Z"/><path class="cls-4" d="M227.54,273.42a20,20,0,1,1,31.18-25,25.34,25.34,0,0,0,8,6.38,43.42,43.42,0,0,0,22.78,5c7.39-.31,14.07-2.23,18.62-5.88a14.47,14.47,0,0,0,3.65-4.25,20,20,0,1,1,35.12,19.24,54.66,54.66,0,0,1-13.77,16.29c-11.43,9.11-26.62,14.07-42.1,14.68A85.24,85.24,0,0,1,247.58,290a64.81,64.81,0,0,1-20-16.6Z"/><path class="cls-5" d="M142.92,293.36a32.54,32.54,0,1,0-32.59-32.49,32.52,32.52,0,0,0,32.59,32.49Z"/><path class="cls-5" d="M506.1,51c10.83,35.43,9.72,34.31,45.14,45.14,18.33,5.67,18.33,15.59,0,21.26-35.42,10.93-34.31,9.82-45.14,45.25-5.67,18.32-15.69,18.32-21.26,0-10.93-35.43-9.81-34.32-45.24-45.25-18.32-5.67-18.32-15.59,0-21.26C475,85.35,473.91,86.47,484.84,51c5.57-18.32,15.59-18.32,21.26,0Z"/><path class="cls-5" d="M361.66,8.73c6.88,22.47,6.17,21.76,28.64,28.65,11.54,3.54,11.54,9.81,0,13.36-22.47,7-21.76,6.27-28.64,28.64-3.54,11.64-9.92,11.64-13.46,0C341.31,57,342,57.72,319.65,50.74c-11.64-3.55-11.64-9.82,0-13.36C342,30.49,341.31,31.2,348.2,8.73c3.54-11.64,9.92-11.64,13.46,0Z"/></g></g></svg>