<svg width="19" height="20" viewBox="0 0 19 20" fill="none" xmlns="http://www.w3.org/2000/svg">
<path fill-rule="evenodd" clip-rule="evenodd" d="M6.87499 0.832031C6.38876 0.832142 5.92249 1.0254 5.57875 1.3693C5.23501 1.71319 5.04196 2.17955 5.04207 2.66578C5.04218 3.15201 5.23544 3.61828 5.57934 3.96202C5.92323 4.30576 6.38959 4.49881 6.87582 4.4987H8.70915V2.66536C8.70871 2.17927 8.51542 1.71321 8.1717 1.36949C7.82797 1.02577 7.36192 0.832473 6.87582 0.832031H6.87499ZM6.87499 5.7212H1.98665C1.50042 5.7212 1.03411 5.91435 0.690291 6.25817C0.346475 6.60199 0.15332 7.0683 0.15332 7.55453C0.15332 8.04076 0.346475 8.50708 0.690291 8.85089C1.03411 9.19471 1.50042 9.38787 1.98665 9.38787H6.87499C7.36122 9.38787 7.82753 9.19471 8.17135 8.85089C8.51517 8.50708 8.70832 8.04076 8.70832 7.55453C8.70832 7.0683 8.51517 6.60199 8.17135 6.25817C7.82753 5.91435 7.36122 5.7212 6.87499 5.7212ZM18.4867 7.5537C18.4867 7.06747 18.2935 6.60115 17.9497 6.25734C17.6059 5.91352 17.1396 5.72037 16.6533 5.72037C16.1671 5.72037 15.7008 5.91352 15.357 6.25734C15.0131 6.60115 14.82 7.06747 14.82 7.5537V9.38703H16.6533C17.1396 9.38703 17.6059 9.19388 17.9497 8.85006C18.2935 8.50624 18.4867 8.03993 18.4867 7.5537ZM13.5975 7.5537V2.66536C13.5975 2.17913 13.4043 1.71282 13.0605 1.369C12.7167 1.02519 12.2504 0.832031 11.7642 0.832031C11.2779 0.832031 10.8116 1.02519 10.4678 1.369C10.124 1.71282 9.93082 2.17913 9.93082 2.66536V7.5537C9.93082 8.03993 10.124 8.50624 10.4678 8.85006C10.8116 9.19388 11.2779 9.38703 11.7642 9.38703C12.2504 9.38703 12.7167 9.19388 13.0605 8.85006C13.4043 8.50624 13.5975 8.03993 13.5975 7.5537ZM11.7642 19.1654C12.2504 19.1654 12.7167 18.9722 13.0605 18.6284C13.4043 18.2846 13.5975 17.8183 13.5975 17.332C13.5975 16.8458 13.4043 16.3795 13.0605 16.0357C12.7167 15.6919 12.2504 15.4987 11.7642 15.4987H9.93082V17.332C9.93104 17.8182 10.1243 18.2844 10.468 18.6282C10.8118 18.9719 11.278 19.1651 11.7642 19.1654ZM11.7642 14.2754H16.6533C17.1396 14.2754 17.6059 14.0822 17.9497 13.7384C18.2935 13.3946 18.4867 12.9283 18.4867 12.442C18.4867 11.9558 18.2935 11.4895 17.9497 11.1457C17.6059 10.8019 17.1396 10.6087 16.6533 10.6087H11.765C11.2788 10.6086 10.8124 10.8016 10.4685 11.1454C10.1246 11.4891 9.93135 11.9554 9.93124 12.4416C9.93113 12.9278 10.1242 13.3942 10.4679 13.7381C10.8117 14.082 11.2779 14.2753 11.7642 14.2754ZM0.15332 12.4429C0.15332 12.9291 0.346475 13.3954 0.690291 13.7392C1.03411 14.083 1.50042 14.2762 1.98665 14.2762C2.47288 14.2762 2.9392 14.083 3.28302 13.7392C3.62683 13.3954 3.81999 12.9291 3.81999 12.4429V10.6095H1.98665C1.50042 10.6095 1.03411 10.8027 0.690291 11.1465C0.346475 11.4903 0.15332 11.9566 0.15332 12.4429ZM5.04249 12.4429V17.3312C5.04238 17.8174 5.23542 18.2838 5.57916 18.6277C5.9229 18.9716 6.38917 19.1648 6.8754 19.1649C7.36163 19.1651 7.82799 18.972 8.17189 18.6283C8.51578 18.2845 8.70904 17.8183 8.70915 17.332V12.4437C8.70926 11.9575 8.51622 11.4911 8.17248 11.1472C7.82874 10.8033 7.36247 10.6101 6.87624 10.6099C6.39001 10.6098 5.92365 10.8029 5.57975 11.1466C5.23586 11.4904 5.0426 11.9566 5.04249 12.4429Z" fill="white"/>
</svg>
