<svg width="20" height="16" viewBox="0 0 20 16" fill="none" xmlns="http://www.w3.org/2000/svg">
<path d="M19.0242 2.11366C18.3284 2.42199 17.5809 2.63033 16.795 2.72449C17.6059 2.23932 18.2125 1.47572 18.5017 0.576161C17.7399 1.02865 16.9062 1.34716 16.0367 1.51783C15.452 0.893549 14.6776 0.479766 13.8336 0.340723C12.9897 0.201679 12.1235 0.345154 11.3694 0.748872C10.6154 1.15259 10.0157 1.79396 9.6635 2.57341C9.31132 3.35287 9.22632 4.22679 9.42171 5.05949C7.87811 4.98199 6.36806 4.58079 4.98956 3.88192C3.61106 3.18305 2.39491 2.20213 1.42004 1.00283C1.08671 1.57783 0.895039 2.24449 0.895039 2.95449C0.894667 3.59366 1.05207 4.22303 1.35327 4.78677C1.65448 5.35051 2.09017 5.83119 2.62171 6.18616C2.00527 6.16655 1.40243 5.99998 0.863372 5.70033V5.75033C0.86331 6.64678 1.1734 7.51564 1.74102 8.20949C2.30865 8.90334 3.09885 9.37944 3.97754 9.557C3.40569 9.71176 2.80615 9.73455 2.22421 9.62366C2.47212 10.395 2.95504 11.0695 3.60535 11.5528C4.25565 12.036 5.0408 12.3038 5.85087 12.3187C4.47573 13.3982 2.77745 13.9837 1.02921 13.9812C0.719523 13.9812 0.410103 13.9632 0.102539 13.927C1.8771 15.068 3.94282 15.6735 6.05254 15.6712C13.1942 15.6712 17.0984 9.75616 17.0984 4.62616C17.0984 4.45949 17.0942 4.29116 17.0867 4.12449C17.8461 3.57531 18.5016 2.89524 19.0225 2.11616L19.0242 2.11366Z" fill="white"/>
</svg>
