<svg width="93" height="60" viewBox="0 0 93 60" fill="none" xmlns="http://www.w3.org/2000/svg">
<path d="M84.1588 8.74638C79.0046 3.54864 72.1379 0.451374 64.869 0.0455897C57.6001 -0.360195 50.4379 1.95391 44.749 6.54634H23.7863C23.3892 6.54634 23.0083 6.70583 22.7275 6.98972C22.4467 7.27361 22.2889 7.65865 22.2889 8.06013C22.2889 8.46161 22.4467 8.84665 22.7275 9.13054C23.0083 9.41443 23.3892 9.57392 23.7863 9.57392H41.5546C39.8958 11.3766 38.4641 13.3799 37.2922 15.5383H13.7441C13.347 15.5383 12.9662 15.6977 12.6854 15.9816C12.4046 16.2655 12.2468 16.6506 12.2468 17.052C12.2468 17.4535 12.4046 17.8386 12.6854 18.1225C12.9662 18.4064 13.347 18.5658 13.7441 18.5658H35.8548C34.0422 23.0644 33.3332 27.9396 33.7885 32.7753H23.8062C23.4091 32.7753 23.0283 32.9348 22.7475 33.2187C22.4667 33.5026 22.3089 33.8876 22.3089 34.2891C22.3089 34.6906 22.4667 35.0756 22.7475 35.3595C23.0283 35.6434 23.4091 35.8029 23.8062 35.8029H34.2377C34.6225 37.7573 35.2011 39.6676 35.9646 41.5048H13.7441C13.347 41.5048 12.9662 41.6643 12.6854 41.9482C12.4046 42.2321 12.2468 42.6171 12.2468 43.0186C12.2468 43.4201 12.4046 43.8051 12.6854 44.089C12.9662 44.3729 13.347 44.5324 13.7441 44.5324H37.432C38.567 46.6115 39.948 48.5431 41.5447 50.2848H10.1106C9.7135 50.2848 9.33264 50.4443 9.05184 50.7282C8.77104 51.0121 8.61328 51.3971 8.61328 51.7986C8.61328 52.2001 8.77104 52.5851 9.05184 52.869C9.33264 53.1529 9.7135 53.3124 10.1106 53.3124H43.7607C44.023 53.3091 44.2803 53.2397 44.5094 53.1105C50.3844 58.036 57.9144 60.4766 65.527 59.9227C73.1396 59.3688 80.2462 55.8633 85.3631 50.138C90.4799 44.4127 93.2113 36.9104 92.9869 29.1976C92.7625 21.4847 89.5996 14.1577 84.1588 8.74638ZM82.0426 48.9224C78.3227 52.6801 73.5843 55.2385 68.4264 56.2741C63.2685 57.3097 57.9227 56.776 53.0648 54.7405C48.2069 52.705 44.055 49.259 41.1339 44.8383C38.2128 40.4176 36.6537 35.2205 36.6537 29.9041C36.6537 24.5877 38.2128 19.3907 41.1339 14.9699C44.055 10.5492 48.2069 7.1033 53.0648 5.0678C57.9227 3.0323 63.2685 2.49861 68.4264 3.53419C73.5843 4.56978 78.3227 7.12814 82.0426 10.8859C87.0221 15.9349 89.8184 22.7741 89.8184 29.9041C89.8184 37.0342 87.0221 43.8733 82.0426 48.9224Z" fill="#FDFDFD"/>
<path d="M63.2391 7.38428C58.8345 7.38428 54.5287 8.70477 50.8664 11.1788C47.204 13.6528 44.3496 17.1691 42.664 21.2832C40.9784 25.3973 40.5374 29.9244 41.3967 34.2919C42.256 38.6594 44.377 42.6712 47.4916 45.82C50.6062 48.9688 54.5744 51.1131 58.8944 51.9819C63.2144 52.8506 67.6922 52.4048 71.7616 50.7006C75.831 48.9965 79.3091 46.1107 81.7562 42.4081C84.2033 38.7055 85.5095 34.3525 85.5095 29.8994C85.5016 23.9305 83.1527 18.2083 78.9779 13.9876C74.8031 9.76698 69.1431 7.39229 63.2391 7.38428ZM64.7364 49.2759V47.5098C64.7364 47.1083 64.5787 46.7233 64.2979 46.4394C64.0171 46.1555 63.6362 45.996 63.2391 45.996C62.842 45.996 62.4611 46.1555 62.1803 46.4394C61.8995 46.7233 61.7418 47.1083 61.7418 47.5098V49.2759C57.1736 48.9098 52.8836 46.911 49.6405 43.6379C46.3975 40.3647 44.4132 36.031 44.0433 31.4132H45.8201C46.2172 31.4132 46.5981 31.2537 46.8789 30.9698C47.1597 30.6859 47.3175 30.3009 47.3175 29.8994C47.3175 29.4979 47.1597 29.1129 46.8789 28.829C46.5981 28.5451 46.2172 28.3856 45.8201 28.3856H44.0433C44.4044 23.7617 46.3851 19.4197 49.6292 16.1399C52.8733 12.8601 57.1681 10.8577 61.7418 10.4926V12.289C61.7418 12.6904 61.8995 13.0755 62.1803 13.3594C62.4611 13.6433 62.842 13.8027 63.2391 13.8027C63.6362 13.8027 64.0171 13.6433 64.2979 13.3594C64.5787 13.0755 64.7364 12.6904 64.7364 12.289V10.4926C69.3101 10.8577 73.6049 12.8601 76.849 16.1399C80.0932 19.4197 82.0738 23.7617 82.4349 28.3856H80.6581C80.261 28.3856 79.8801 28.5451 79.5993 28.829C79.3185 29.1129 79.1608 29.4979 79.1608 29.8994C79.1608 30.3009 79.3185 30.6859 79.5993 30.9698C79.8801 31.2537 80.261 31.4132 80.6581 31.4132H82.4349C82.065 36.031 80.0808 40.3647 76.8377 43.6379C73.5946 46.911 69.3046 48.9098 64.7364 49.2759Z" fill="#FDFDFD"/>
<path d="M71.4628 33.4312L65.184 29.3944L71.7024 16.2749C71.8218 15.9248 71.8103 15.5427 71.6699 15.2007C71.5295 14.8587 71.2699 14.5806 70.9404 14.419C70.6109 14.2574 70.2342 14.2235 69.8817 14.3238C69.5291 14.424 69.2251 14.6514 69.0271 14.9629L61.8998 29.2228C61.7325 29.5574 61.694 29.9429 61.7917 30.3046C61.8895 30.6663 62.1165 30.9785 62.4289 31.1806L69.8457 35.9844C70.0844 36.1374 70.3616 36.218 70.6442 36.2165C70.968 36.2179 71.2834 36.1131 71.5433 35.9179C71.8032 35.7227 71.9935 35.4476 72.0857 35.1339C72.1779 34.8201 72.167 34.4846 72.0547 34.1776C71.9424 33.8707 71.7347 33.6087 71.4628 33.4312ZM18.8764 34.2789C18.8764 33.8774 18.7186 33.4924 18.4378 33.2085C18.157 32.9246 17.7762 32.7651 17.3791 32.7651H1.49733C1.10022 32.7651 0.719364 32.9246 0.438559 33.2085C0.157754 33.4924 0 33.8774 0 34.2789C0 34.6804 0.157754 35.0654 0.438559 35.3493C0.719364 35.6332 1.10022 35.7927 1.49733 35.7927H17.399C17.7927 35.7874 18.1684 35.6255 18.4449 35.3422C18.7214 35.0589 18.8764 34.6769 18.8764 34.2789ZM8.83427 9.56371H17.399C17.7961 9.56371 18.177 9.40423 18.4578 9.12034C18.7386 8.83645 18.8964 8.45141 18.8964 8.04992C18.8964 7.64844 18.7386 7.2634 18.4578 6.97951C18.177 6.69562 17.7961 6.53613 17.399 6.53613H8.83427C8.43716 6.53613 8.0563 6.69562 7.7755 6.97951C7.49469 7.2634 7.33694 7.64844 7.33694 8.04992C7.33694 8.45141 7.49469 8.83645 7.7755 9.12034C8.0563 9.40423 8.43716 9.56371 8.83427 9.56371ZM7.20717 27.0732H26.942C27.3392 27.0732 27.72 26.9137 28.0008 26.6299C28.2816 26.346 28.4394 25.9609 28.4394 25.5594C28.4394 25.158 28.2816 24.7729 28.0008 24.489C27.72 24.2051 27.3392 24.0456 26.942 24.0456H7.20717C6.81005 24.0456 6.4292 24.2051 6.14839 24.489C5.86759 24.7729 5.70984 25.158 5.70984 25.5594C5.70984 25.9609 5.86759 26.346 6.14839 26.6299C6.4292 26.9137 6.81005 27.0732 7.20717 27.0732Z" fill="#FDFDFD"/>
</svg>
