<svg width="21" height="20" viewBox="0 0 21 20" fill="none" xmlns="http://www.w3.org/2000/svg">
<path fill-rule="evenodd" clip-rule="evenodd" d="M10.3213 0C4.79629 0 0.321289 4.475 0.321289 10C0.321289 14.425 3.18379 18.1625 7.15879 19.4875C7.65879 19.575 7.84629 19.275 7.84629 19.0125C7.84629 18.775 7.83379 17.9875 7.83379 17.15C5.32129 17.6125 4.67129 16.5375 4.47129 15.975C4.35879 15.6875 3.87129 14.8 3.44629 14.5625C3.09629 14.375 2.59629 13.9125 3.43379 13.9C4.22129 13.8875 4.78379 14.625 4.97129 14.925C5.87129 16.4375 7.30879 16.0125 7.88379 15.75C7.97129 15.1 8.23379 14.6625 8.52129 14.4125C6.29629 14.1625 3.97129 13.3 3.97129 9.475C3.97129 8.3875 4.35879 7.4875 4.99629 6.7875C4.89629 6.5375 4.54629 5.5125 5.09629 4.1375C5.09629 4.1375 5.93379 3.875 7.84629 5.1625C8.64629 4.9375 9.49629 4.825 10.3463 4.825C11.1963 4.825 12.0463 4.9375 12.8463 5.1625C14.7588 3.8625 15.5963 4.1375 15.5963 4.1375C16.1463 5.5125 15.7963 6.5375 15.6963 6.7875C16.3338 7.4875 16.7213 8.375 16.7213 9.475C16.7213 13.3125 14.3838 14.1625 12.1588 14.4125C12.5213 14.725 12.8338 15.325 12.8338 16.2625C12.8338 17.6 12.8213 18.675 12.8213 19.0125C12.8213 19.275 13.0088 19.5875 13.5088 19.4875C15.4939 18.8173 17.2189 17.5414 18.441 15.8395C19.6631 14.1375 20.3207 12.0952 20.3213 10C20.3213 4.475 15.8463 0 10.3213 0Z" fill="white"/>
</svg>
