<svg width="84" height="81" viewBox="0 0 84 81" fill="none" xmlns="http://www.w3.org/2000/svg">
<path d="M69.5 0.5H14.5C6.91825 0.5 0.75 6.66825 0.75 14.25V52.75C0.75 60.3317 6.91825 66.5 14.5 66.5H49.1115L62.0557 79.4443C62.581 79.9695 63.285 80.25 64 80.25C64.3548 80.25 64.7122 80.1813 65.0532 80.041C66.079 79.6147 66.75 78.611 66.75 77.5V66.5H69.5C77.0817 66.5 83.25 60.3317 83.25 52.75V14.25C83.25 6.66825 77.0817 0.5 69.5 0.5ZM77.75 52.75C77.75 57.2985 74.0485 61 69.5 61H64C62.482 61 61.25 62.232 61.25 63.75V70.8615L52.1943 61.8057C51.68 61.2887 50.9787 61 50.25 61H14.5C9.9515 61 6.25 57.2985 6.25 52.75V14.25C6.25 9.7015 9.9515 6 14.5 6H69.5C74.0485 6 77.75 9.7015 77.75 14.25V52.75Z" fill="#FDFDFD"/>
</svg>
